<?xml version="1.0" encoding="iso-8859-1"?>
<!-- Generator: Adobe Illustrator 19.1.0, SVG Export Plug-In . SVG Version: 6.00 Build 0)  -->
<svg xmlns="http://www.w3.org/2000/svg" xmlns:xlink="http://www.w3.org/1999/xlink" version="1.1" id="Capa_1" x="0px" y="0px" viewBox="0 0 64 64" style="enable-background:new 0 0 64 64;" xml:space="preserve" width="512px" height="512px">
<g>
	<g>
		<path d="M54.5,28c0,13.851-12.149,26-26,26c-9.265,0-12.178-3.573-12.2-3.6l-1.6,1.2c0.13,0.174,3.223,4.11,12.8,4.375V62h-9v2h9    h2h9v-2h-9v-6.027c14.495-0.569,27-13.392,27-27.973c0-14.916-13.084-28-28-28v2C42.351,2,54.5,14.149,54.5,28z" fill="#FFFFFF"/>
		<path d="M28.5,49c11.58,0,21-9.42,21-21s-9.42-21-21-21s-21,9.42-21,21S16.92,49,28.5,49z M28.5,9c10.477,0,19,8.523,19,19    s-8.523,19-19,19s-19-8.523-19-19S18.023,9,28.5,9z" fill="#FFFFFF"/>
	</g>
</g>
<g>
</g>
<g>
</g>
<g>
</g>
<g>
</g>
<g>
</g>
<g>
</g>
<g>
</g>
<g>
</g>
<g>
</g>
<g>
</g>
<g>
</g>
<g>
</g>
<g>
</g>
<g>
</g>
<g>
</g>
</svg>
