<?xml version="1.0" encoding="iso-8859-1"?>
<svg xmlns="http://www.w3.org/2000/svg" xmlns:xlink="http://www.w3.org/1999/xlink" version="1.1" viewBox="0 0 489.99 489.99" enable-background="new 0 0 489.99 489.99" width="512px" height="512px">
  <g>
    <path fill="#FFFFFF" d="m489.6,221.095c-21.264-101.172-119.077-174.809-234.4-179.005v-36.695h-20.8v36.695c-115.323,4.196-213.136,77.831-234.4,178.905 0,3.2 0.1,5.1 2.1,8.3s5.2,4.2 8.3,4.2h224v207.3c0,12.5-12.5,22.9-27.1,22.9s-27.1-10.4-27.1-22.9v-28.1h-20.8v28.1c0,24 21.9,43.8 47.9,43.8s47.9-19.8 47.9-43.8v-207.3h224c3.1,0 6.2-2.1 8.3-4.1 2.1-2 3.1-5.2 2.1-8.3zm-465.6-8.4c25-87.5 115.7-150 220.9-150s195.8,62.5 220.8,150h-441.7z"/>
  </g>
</svg>
